<svg width="22" height="22" viewBox="0 0 22 22" fill="none" xmlns="http://www.w3.org/2000/svg">
<path d="M8 20.375V12.975C8 12.4149 8 12.1349 8.109 11.921C8.20487 11.7328 8.35785 11.5799 8.54601 11.484C8.75993 11.375 9.03995 11.375 9.6 11.375H12.4C12.9601 11.375 13.2401 11.375 13.454 11.484C13.6422 11.5799 13.7951 11.7328 13.891 11.921C14 12.1349 14 12.4149 14 12.975V20.375M1 8.875L10.04 2.095C10.3843 1.83681 10.5564 1.70771 10.7454 1.65794C10.9123 1.61402 11.0877 1.61402 11.2546 1.65795C11.4436 1.70771 11.6157 1.83681 11.96 2.095L21 8.875M3 7.375V17.175C3 18.2951 3 18.8552 3.21799 19.283C3.40974 19.6593 3.7157 19.9653 4.09202 20.157C4.51985 20.375 5.0799 20.375 6.2 20.375H15.8C16.9201 20.375 17.4802 20.375 17.908 20.157C18.2843 19.9653 18.5903 19.6593 18.782 19.283C19 18.8552 19 18.2951 19 17.175V7.375L12.92 2.815C12.2315 2.29861 11.8872 2.04042 11.5091 1.94089C11.1754 1.85304 10.8246 1.85304 10.4909 1.94089C10.1128 2.04042 9.76852 2.29861 9.08 2.815L3 7.375Z" stroke="#737373" stroke-width="1.5" stroke-linecap="round" stroke-linejoin="round"/>
</svg>
