<svg width="24" height="20" viewBox="0 0 24 20" fill="none" xmlns="http://www.w3.org/2000/svg">
<path d="M21.9645 0.176619C18.7983 1.49892 5.22236 7.16931 1.47133 8.71477C-1.04428 9.70468 0.428392 10.6328 0.428392 10.6328C0.428392 10.6328 2.57577 11.3752 4.41667 11.932C6.25732 12.4889 7.23902 11.8703 7.23902 11.8703L15.8903 5.99258C18.9581 3.88898 18.2219 5.62126 17.4854 6.36389C15.8903 7.97266 13.2519 10.5091 11.0431 12.5509C10.0614 13.417 10.5521 14.1594 10.9818 14.5307C12.577 15.892 16.9335 18.6762 17.1787 18.8617C18.4749 19.787 21.0244 21.1189 21.4122 18.3048L22.9461 8.59126C23.4371 5.31222 23.9278 2.28047 23.9891 1.41433C24.1733 -0.689521 21.9645 0.176619 21.9645 0.176619Z" fill="#E0E0E0"/>
</svg>
